<mxfile host="Electron" modified="2024-07-20T02:54:45.371Z" agent="Mozilla/5.0 (Windows NT 10.0; Win64; x64) AppleWebKit/537.36 (KHTML, like Gecko) draw.io/24.6.4 Chrome/124.0.6367.207 Electron/30.0.6 Safari/537.36" etag="Ui_FVDWgE8buz7313KmK" version="24.6.4" type="device">
  <diagram name="第 1 页" id="KIm73RBd0MibPIfYpDuC">
    <mxGraphModel dx="592" dy="346" grid="1" gridSize="10" guides="1" tooltips="1" connect="1" arrows="1" fold="1" page="1" pageScale="1" pageWidth="827" pageHeight="1169" math="0" shadow="0">
      <root>
        <mxCell id="0" />
        <mxCell id="1" parent="0" />
        <mxCell id="WfeYv4DNVJDnMG_4mQB4-8" value="" style="rounded=0;whiteSpace=wrap;html=1;fillColor=#fff2cc;strokeColor=#d6b656;" vertex="1" parent="1">
          <mxGeometry x="280" y="90" width="170" height="120" as="geometry" />
        </mxCell>
        <mxCell id="WfeYv4DNVJDnMG_4mQB4-4" style="edgeStyle=orthogonalEdgeStyle;rounded=0;orthogonalLoop=1;jettySize=auto;html=1;exitX=1;exitY=0.25;exitDx=0;exitDy=0;entryX=0;entryY=0.25;entryDx=0;entryDy=0;" edge="1" parent="1">
          <mxGeometry relative="1" as="geometry">
            <mxPoint x="280" y="132.5" as="sourcePoint" />
            <mxPoint x="450" y="132.5" as="targetPoint" />
          </mxGeometry>
        </mxCell>
        <mxCell id="WfeYv4DNVJDnMG_4mQB4-2" value="客户端" style="rounded=0;whiteSpace=wrap;html=1;fillColor=#dae8fc;strokeColor=#6c8ebf;" vertex="1" parent="1">
          <mxGeometry x="200" y="70" width="80" height="170" as="geometry" />
        </mxCell>
        <mxCell id="WfeYv4DNVJDnMG_4mQB4-6" style="edgeStyle=orthogonalEdgeStyle;rounded=0;orthogonalLoop=1;jettySize=auto;html=1;exitX=0;exitY=0.75;exitDx=0;exitDy=0;entryX=1;entryY=0.75;entryDx=0;entryDy=0;" edge="1" parent="1">
          <mxGeometry relative="1" as="geometry">
            <mxPoint x="450" y="170" as="sourcePoint" />
            <mxPoint x="280" y="170" as="targetPoint" />
          </mxGeometry>
        </mxCell>
        <mxCell id="WfeYv4DNVJDnMG_4mQB4-3" value="服务端" style="rounded=0;whiteSpace=wrap;html=1;fillColor=#d5e8d4;strokeColor=#82b366;" vertex="1" parent="1">
          <mxGeometry x="450" y="70" width="80" height="170" as="geometry" />
        </mxCell>
        <mxCell id="WfeYv4DNVJDnMG_4mQB4-5" value="SocketChannel" style="text;html=1;align=center;verticalAlign=middle;resizable=0;points=[];autosize=1;strokeColor=none;fillColor=none;" vertex="1" parent="1">
          <mxGeometry x="304" y="100" width="100" height="30" as="geometry" />
        </mxCell>
        <mxCell id="WfeYv4DNVJDnMG_4mQB4-7" value="SeverSocketChannel" style="text;html=1;align=center;verticalAlign=middle;resizable=0;points=[];autosize=1;strokeColor=none;fillColor=none;" vertex="1" parent="1">
          <mxGeometry x="290" y="172.5" width="140" height="30" as="geometry" />
        </mxCell>
        <mxCell id="WfeYv4DNVJDnMG_4mQB4-9" value="TCP连接" style="text;html=1;align=center;verticalAlign=middle;resizable=0;points=[];autosize=1;strokeColor=none;fillColor=none;" vertex="1" parent="1">
          <mxGeometry x="325" y="202.5" width="70" height="30" as="geometry" />
        </mxCell>
        <mxCell id="WfeYv4DNVJDnMG_4mQB4-10" value="一个TCP连接包括两个通信Channel" style="text;html=1;align=center;verticalAlign=middle;resizable=0;points=[];autosize=1;strokeColor=none;fillColor=none;" vertex="1" parent="1">
          <mxGeometry x="265" y="28" width="210" height="30" as="geometry" />
        </mxCell>
        <mxCell id="WfeYv4DNVJDnMG_4mQB4-14" style="edgeStyle=orthogonalEdgeStyle;rounded=0;orthogonalLoop=1;jettySize=auto;html=1;exitX=1;exitY=0.25;exitDx=0;exitDy=0;entryX=0;entryY=0.25;entryDx=0;entryDy=0;" edge="1" parent="1" source="WfeYv4DNVJDnMG_4mQB4-11" target="WfeYv4DNVJDnMG_4mQB4-13">
          <mxGeometry relative="1" as="geometry" />
        </mxCell>
        <mxCell id="WfeYv4DNVJDnMG_4mQB4-18" style="edgeStyle=orthogonalEdgeStyle;rounded=0;orthogonalLoop=1;jettySize=auto;html=1;exitX=1;exitY=0.75;exitDx=0;exitDy=0;entryX=0;entryY=0.75;entryDx=0;entryDy=0;" edge="1" parent="1" source="WfeYv4DNVJDnMG_4mQB4-11" target="WfeYv4DNVJDnMG_4mQB4-13">
          <mxGeometry relative="1" as="geometry" />
        </mxCell>
        <mxCell id="WfeYv4DNVJDnMG_4mQB4-11" value="客户端" style="rounded=0;whiteSpace=wrap;html=1;fillColor=#dae8fc;strokeColor=#6c8ebf;" vertex="1" parent="1">
          <mxGeometry x="120" y="392" width="80" height="170" as="geometry" />
        </mxCell>
        <mxCell id="WfeYv4DNVJDnMG_4mQB4-16" style="edgeStyle=orthogonalEdgeStyle;rounded=0;orthogonalLoop=1;jettySize=auto;html=1;exitX=0;exitY=0.5;exitDx=0;exitDy=0;entryX=1;entryY=0.5;entryDx=0;entryDy=0;" edge="1" parent="1" source="WfeYv4DNVJDnMG_4mQB4-13" target="WfeYv4DNVJDnMG_4mQB4-11">
          <mxGeometry relative="1" as="geometry" />
        </mxCell>
        <mxCell id="WfeYv4DNVJDnMG_4mQB4-13" value="服务端" style="rounded=0;whiteSpace=wrap;html=1;fillColor=#d5e8d4;strokeColor=#82b366;" vertex="1" parent="1">
          <mxGeometry x="520" y="392" width="80" height="170" as="geometry" />
        </mxCell>
        <mxCell id="WfeYv4DNVJDnMG_4mQB4-15" value="1、连接请求SYN（创建SocketChannel）" style="text;html=1;align=center;verticalAlign=middle;resizable=0;points=[];autosize=1;strokeColor=none;fillColor=none;" vertex="1" parent="1">
          <mxGeometry x="235" y="410" width="240" height="30" as="geometry" />
        </mxCell>
        <mxCell id="WfeYv4DNVJDnMG_4mQB4-17" value="2、请求确认SYN+ACK（创建ServerSocket&lt;span style=&quot;background-color: initial;&quot;&gt;Channel）&lt;/span&gt;" style="text;html=1;align=center;verticalAlign=middle;resizable=0;points=[];autosize=1;strokeColor=none;fillColor=none;" vertex="1" parent="1">
          <mxGeometry x="210" y="452" width="310" height="30" as="geometry" />
        </mxCell>
        <mxCell id="WfeYv4DNVJDnMG_4mQB4-19" value="3、确认“请求确认”ACK" style="text;html=1;align=center;verticalAlign=middle;resizable=0;points=[];autosize=1;strokeColor=none;fillColor=none;" vertex="1" parent="1">
          <mxGeometry x="269" y="492" width="150" height="30" as="geometry" />
        </mxCell>
        <mxCell id="WfeYv4DNVJDnMG_4mQB4-20" value="三次握手" style="text;html=1;align=center;verticalAlign=middle;resizable=0;points=[];autosize=1;strokeColor=none;fillColor=none;" vertex="1" parent="1">
          <mxGeometry x="325" y="340" width="70" height="30" as="geometry" />
        </mxCell>
        <mxCell id="WfeYv4DNVJDnMG_4mQB4-21" style="edgeStyle=orthogonalEdgeStyle;rounded=0;orthogonalLoop=1;jettySize=auto;html=1;exitX=1;exitY=0.25;exitDx=0;exitDy=0;entryX=0;entryY=0.25;entryDx=0;entryDy=0;" edge="1" source="WfeYv4DNVJDnMG_4mQB4-23" target="WfeYv4DNVJDnMG_4mQB4-25" parent="1">
          <mxGeometry relative="1" as="geometry" />
        </mxCell>
        <mxCell id="WfeYv4DNVJDnMG_4mQB4-22" style="edgeStyle=orthogonalEdgeStyle;rounded=0;orthogonalLoop=1;jettySize=auto;html=1;exitX=1;exitY=0.75;exitDx=0;exitDy=0;entryX=0;entryY=0.75;entryDx=0;entryDy=0;" edge="1" parent="1">
          <mxGeometry relative="1" as="geometry">
            <mxPoint x="205" y="800" as="sourcePoint" />
            <mxPoint x="525" y="800" as="targetPoint" />
          </mxGeometry>
        </mxCell>
        <mxCell id="WfeYv4DNVJDnMG_4mQB4-23" value="客户端" style="rounded=0;whiteSpace=wrap;html=1;fillColor=#dae8fc;strokeColor=#6c8ebf;" vertex="1" parent="1">
          <mxGeometry x="125" y="640" width="80" height="170" as="geometry" />
        </mxCell>
        <mxCell id="WfeYv4DNVJDnMG_4mQB4-24" style="edgeStyle=orthogonalEdgeStyle;rounded=0;orthogonalLoop=1;jettySize=auto;html=1;exitX=0;exitY=0.5;exitDx=0;exitDy=0;entryX=1;entryY=0.5;entryDx=0;entryDy=0;" edge="1" parent="1">
          <mxGeometry relative="1" as="geometry">
            <mxPoint x="525" y="713" as="sourcePoint" />
            <mxPoint x="205" y="713" as="targetPoint" />
          </mxGeometry>
        </mxCell>
        <mxCell id="WfeYv4DNVJDnMG_4mQB4-25" value="服务端" style="rounded=0;whiteSpace=wrap;html=1;fillColor=#d5e8d4;strokeColor=#82b366;" vertex="1" parent="1">
          <mxGeometry x="525" y="640" width="80" height="170" as="geometry" />
        </mxCell>
        <mxCell id="WfeYv4DNVJDnMG_4mQB4-26" value="1、关闭连接请求FIN+ACK（关闭SocketChannel）" style="text;html=1;align=center;verticalAlign=middle;resizable=0;points=[];autosize=1;strokeColor=none;fillColor=none;" vertex="1" parent="1">
          <mxGeometry x="215" y="658" width="290" height="30" as="geometry" />
        </mxCell>
        <mxCell id="WfeYv4DNVJDnMG_4mQB4-27" value="2、关闭连接请求确认ACK" style="text;html=1;align=center;verticalAlign=middle;resizable=0;points=[];autosize=1;strokeColor=none;fillColor=none;" vertex="1" parent="1">
          <mxGeometry x="285" y="688" width="160" height="30" as="geometry" />
        </mxCell>
        <mxCell id="WfeYv4DNVJDnMG_4mQB4-28" value="4、确认“关闭连接请求确认”ACK" style="text;html=1;align=center;verticalAlign=middle;resizable=0;points=[];autosize=1;strokeColor=none;fillColor=none;" vertex="1" parent="1">
          <mxGeometry x="280" y="770" width="190" height="30" as="geometry" />
        </mxCell>
        <mxCell id="WfeYv4DNVJDnMG_4mQB4-29" value="四次挥手&lt;div&gt;以客户端主动提交关闭请求为例&lt;/div&gt;" style="text;html=1;align=center;verticalAlign=middle;resizable=0;points=[];autosize=1;strokeColor=none;fillColor=none;" vertex="1" parent="1">
          <mxGeometry x="265" y="605" width="190" height="40" as="geometry" />
        </mxCell>
        <mxCell id="WfeYv4DNVJDnMG_4mQB4-30" value="服务端" style="rounded=0;whiteSpace=wrap;html=1;fillColor=#d5e8d4;strokeColor=#82b366;" vertex="1" parent="1">
          <mxGeometry x="525" y="640" width="80" height="170" as="geometry" />
        </mxCell>
        <mxCell id="WfeYv4DNVJDnMG_4mQB4-31" value="3、关闭连接请求FIN+ACK（关闭ServerSocketChannel）" style="text;html=1;align=center;verticalAlign=middle;resizable=0;points=[];autosize=1;strokeColor=none;fillColor=none;" vertex="1" parent="1">
          <mxGeometry x="205" y="730" width="330" height="30" as="geometry" />
        </mxCell>
        <mxCell id="WfeYv4DNVJDnMG_4mQB4-32" style="edgeStyle=orthogonalEdgeStyle;rounded=0;orthogonalLoop=1;jettySize=auto;html=1;exitX=0;exitY=0.5;exitDx=0;exitDy=0;entryX=1;entryY=0.5;entryDx=0;entryDy=0;" edge="1" parent="1">
          <mxGeometry relative="1" as="geometry">
            <mxPoint x="525" y="755" as="sourcePoint" />
            <mxPoint x="205" y="755" as="targetPoint" />
          </mxGeometry>
        </mxCell>
      </root>
    </mxGraphModel>
  </diagram>
</mxfile>
